<svg width="683" height="436" viewBox="0 0 683 436" fill="none" xmlns="http://www.w3.org/2000/svg">
<g clip-path="url(#clip0_6_294)">
<path d="M78.3346 331.575H9.90904C3.30055 331.575 0 328.271 0 321.656V122.074C0 115.467 3.30055 112.156 9.90904 112.156H71.5193C95.0514 112.156 112.337 115.873 123.383 123.309C134.422 130.744 139.945 145.111 139.945 166.39C139.945 189.737 131.586 205.236 114.87 212.878C124.158 216.182 131.586 222.486 137.161 231.784C142.736 241.081 145.52 252.345 145.52 265.567C145.52 309.572 123.125 331.575 78.3346 331.575ZM55.7328 195.524H69.3559C74.7239 195.524 78.4379 194.238 80.5054 191.652C82.5655 189.072 83.5992 184.682 83.5992 178.481C83.5992 172.28 82.5655 167.942 80.5054 165.466C78.4379 162.99 74.7239 161.748 69.3559 161.748H55.7328V195.532V195.524ZM55.7328 281.99H73.38C79.3609 281.99 83.4884 280.497 85.7626 277.496C88.0295 274.503 89.1666 269.388 89.1666 262.153C89.1666 254.917 88.0295 249.5 85.7626 246.499C83.4884 243.506 79.3609 242.005 73.38 242.005H55.7328V281.982V281.99Z" fill="white"/>
<path d="M188.257 112.156H247.091C255.139 112.156 259.894 115.785 261.342 123.05L294.48 320.821C295.1 324.103 294.635 326.712 293.092 328.655C291.549 330.599 289.134 331.567 285.848 331.567H247.903C241.937 331.567 238.444 328.367 237.418 321.959L233.409 294.998H201.946L197.937 321.959C196.911 328.367 193.411 331.567 187.452 331.567H149.507C146.214 331.567 143.799 330.592 142.256 328.626C140.713 326.667 140.255 324.029 140.875 320.725L174.014 122.946C175.453 115.748 180.209 112.156 188.257 112.156ZM205.742 245.39L229.909 245.442L218.582 167.321L217.068 167.269L205.742 245.39Z" fill="white"/>
<path d="M324.473 261.842V122.074C324.473 115.467 327.774 112.156 334.382 112.156H371.537C378.138 112.156 381.446 115.459 381.446 122.074V272.692C381.446 295.833 377.164 311.642 368.599 320.112C360.033 328.582 345.945 332.816 326.334 332.816C317.665 332.816 309.713 331.989 302.492 330.333C295.263 328.685 291.652 324.443 291.652 317.628V286.639C291.652 281.265 294.539 278.583 300.321 278.583C301.561 278.583 303.57 278.738 306.361 279.048C309.144 279.359 311.359 279.514 313.013 279.514C316.934 279.514 319.829 278.331 321.682 275.951C323.543 273.579 324.466 268.878 324.466 261.85L324.473 261.842Z" fill="white"/>
<path d="M427.263 113.708C435.724 110.611 446.46 109.059 459.463 109.059C472.466 109.059 483.195 110.611 491.664 113.708C500.126 116.805 507.613 122.436 514.111 130.596C520.616 138.763 525.304 150.278 528.199 165.148C531.086 180.026 532.533 198.932 532.533 221.865C532.533 244.799 531.086 263.705 528.199 278.575C525.304 293.453 520.616 304.968 514.111 313.127C507.606 321.294 500.126 326.919 491.664 330.015C483.202 333.112 472.466 334.664 459.463 334.664C446.46 334.664 435.724 333.112 427.263 330.015C418.801 326.919 411.321 321.287 404.816 313.127C398.311 304.968 393.615 293.446 390.728 278.575C387.833 263.697 386.393 244.792 386.393 221.865C386.393 198.939 387.833 180.026 390.728 165.148C393.615 150.27 398.311 138.755 404.816 130.596C411.321 122.436 418.801 116.805 427.263 113.708ZM439.645 94.1813L447.383 71.8684C448.624 67.7369 451.718 65.6675 456.672 65.6675H496.611C499.291 65.6675 501.049 66.7539 501.876 68.9194C502.695 71.085 502.186 73.1027 500.325 74.9651L480.817 96.0364C477.302 99.754 472.968 101.616 467.814 101.616H444.592C439.431 101.616 437.784 99.1406 439.638 94.1813H439.645ZM449.864 279.506C451.924 282.404 455.129 283.845 459.463 283.845C463.798 283.845 466.995 282.404 469.062 279.506C471.122 276.617 472.569 270.933 473.396 262.463C474.216 253.993 474.637 240.461 474.637 221.865C474.637 203.27 474.223 189.745 473.396 181.267C472.569 172.798 471.122 167.121 469.062 164.224C466.995 161.334 463.798 159.886 459.463 159.886C455.129 159.886 451.924 161.334 449.864 164.224C447.797 167.121 446.35 172.798 445.53 181.267C444.703 189.745 444.29 203.27 444.29 221.865C444.29 240.461 444.703 253.993 445.53 262.463C446.35 270.94 447.797 276.617 449.864 279.506Z" fill="white"/>
<path d="M683 122.074V321.656C683 328.271 679.7 331.575 673.091 331.575H641.201C634.592 331.575 630.154 328.788 627.888 323.208L592.593 235.501V321.656C592.593 328.271 589.292 331.575 582.684 331.575H547.39C540.781 331.575 537.48 328.271 537.48 321.656V122.074C537.48 115.467 540.781 112.156 547.39 112.156H579.28C585.881 112.156 590.319 114.942 592.593 120.522L627.888 208.229V122.074C627.888 115.467 631.188 112.156 637.797 112.156H673.091C679.692 112.156 683 115.459 683 122.074Z" fill="white"/>
<path d="M23.5469 1.3894H49.8627C53.466 1.3894 55.5851 3.01539 56.2349 6.25996L71.0541 94.7134C71.3273 96.1768 71.1206 97.3446 70.4339 98.2167C69.7472 99.0888 68.6618 99.5175 67.1924 99.5175H50.2245C47.5589 99.5175 45.9936 98.0837 45.5358 95.2234L43.7415 83.1616H29.668L27.8738 95.2234C27.416 98.0911 25.8506 99.5175 23.1851 99.5175H6.21712C4.74775 99.5175 3.66233 99.0814 2.97564 98.2019C2.28895 97.3224 2.0822 96.1473 2.3554 94.6691L17.1747 6.21562C17.817 3.00061 19.9436 1.3894 23.5469 1.3894ZM31.3663 60.9817L42.1762 61.0039L37.1109 26.0674L36.4316 26.0452L31.3663 60.9817Z" fill="#FFFF00"/>
<path d="M90.0156 1.3894H116.331C119.935 1.3894 122.054 3.01539 122.704 6.25996L137.523 94.7134C137.796 96.1768 137.589 97.3446 136.903 98.2167C136.216 99.0888 135.131 99.5175 133.661 99.5175H116.693C114.028 99.5175 112.462 98.0837 112.005 95.2234L110.21 83.1616H96.1368L94.3425 95.2234C93.8847 98.0911 92.3194 99.5175 89.6538 99.5175H72.6859C71.2165 99.5175 70.1311 99.0814 69.4444 98.2019C68.7577 97.3224 68.551 96.1473 68.8242 94.6691L83.6434 6.21562C84.2858 3.00061 86.4123 1.3894 90.0156 1.3894ZM97.835 60.9817L108.645 61.0039L103.58 26.0674L102.9 26.0452L97.835 60.9817Z" fill="#FFFF00"/>
<path d="M156.477 1.3894H182.793C186.396 1.3894 188.515 3.01539 189.165 6.25996L203.984 94.7134C204.258 96.1768 204.051 97.3446 203.364 98.2167C202.677 99.0888 201.592 99.5175 200.123 99.5175H183.155C180.489 99.5175 178.924 98.0837 178.466 95.2234L176.672 83.1616H162.598L160.804 95.2234C160.346 98.0911 158.781 99.5175 156.115 99.5175H139.147C137.678 99.5175 136.593 99.0814 135.906 98.2019C135.219 97.3224 135.012 96.1473 135.286 94.6691L150.105 6.21562C150.747 3.00061 152.874 1.3894 156.477 1.3894ZM164.296 60.9817L175.106 61.0039L170.041 26.0674L169.362 26.0452L164.296 60.9817Z" fill="#FFFF00"/>
<path d="M222.946 1.3894H249.262C252.865 1.3894 254.984 3.01539 255.634 6.25996L270.453 94.7134C270.727 96.1768 270.52 97.3446 269.833 98.2167C269.146 99.0888 268.061 99.5175 266.592 99.5175H249.624C246.958 99.5175 245.393 98.0837 244.935 95.2234L243.141 83.1616H229.067L227.273 95.2234C226.815 98.0911 225.25 99.5175 222.584 99.5175H205.616C204.147 99.5175 203.062 99.0814 202.375 98.2019C201.688 97.3224 201.481 96.1473 201.755 94.6691L216.574 6.21562C217.216 3.00061 219.343 1.3894 222.946 1.3894ZM230.765 60.9817L241.575 61.0039L236.51 26.0674L235.831 26.0452L230.765 60.9817Z" fill="#FFFF00"/>
<path d="M296.053 5.8239V75.9629H313.781C316.735 75.9629 318.211 77.4411 318.211 80.3974V95.0904C318.211 98.0467 316.735 99.5249 313.781 99.5249H275.009C272.055 99.5249 270.579 98.0467 270.579 95.0904V5.8239C270.579 2.86757 272.055 1.3894 275.009 1.3894H291.622C294.576 1.3894 296.053 2.86757 296.053 5.8239Z" fill="#FFFF00"/>
<path d="M308.096 20.236V5.8239C308.096 2.86757 309.573 1.3894 312.526 1.3894H357.39C360.343 1.3894 361.82 2.86757 361.82 5.8239V20.236C361.82 23.1924 360.343 24.6705 357.39 24.6705H347.695V95.083C347.695 98.0393 346.218 99.5175 343.265 99.5175H326.644C323.69 99.5175 322.214 98.0393 322.214 95.083V24.6705H312.519C309.565 24.6705 308.088 23.1924 308.088 20.236H308.096Z" fill="#FFFF00"/>
<path d="M376.787 2.07682C380.575 0.687347 385.374 0 391.185 0C396.997 0 401.803 0.694738 405.584 2.07682C409.372 3.4663 412.717 5.97918 415.626 9.63025C418.535 13.2813 420.632 18.4327 421.924 25.0845C423.216 31.7362 423.866 40.1913 423.866 50.4498C423.866 60.7083 423.216 69.1634 421.924 75.8152C420.632 82.4669 418.535 87.6183 415.626 91.2694C412.717 94.9205 409.372 97.4407 405.584 98.8228C401.796 100.212 396.997 100.9 391.185 100.9C385.374 100.9 380.568 100.205 376.787 98.8228C372.999 97.4334 369.654 94.9205 366.745 91.2694C363.836 87.6183 361.739 82.4669 360.447 75.8152C359.155 69.1634 358.505 60.7083 358.505 50.4498C358.505 40.1913 359.147 31.7362 360.447 25.0845C361.739 18.4327 363.836 13.2813 366.745 9.63025C369.654 5.97918 372.999 3.45891 376.787 2.07682ZM386.896 76.229C387.818 77.5224 389.251 78.1728 391.185 78.1728C393.12 78.1728 394.552 77.5298 395.475 76.229C396.398 74.9357 397.041 72.3932 397.417 68.6091C397.787 64.8176 397.971 58.7645 397.971 50.4498C397.971 42.1351 397.787 36.082 397.417 32.2905C397.048 28.4991 396.398 25.964 395.475 24.6706C394.552 23.3772 393.12 22.7268 391.185 22.7268C389.251 22.7268 387.818 23.3772 386.896 24.6706C385.973 25.964 385.323 28.5064 384.954 32.2905C384.584 36.082 384.4 42.1351 384.4 50.4498C384.4 58.7645 384.584 64.8176 384.954 68.6091C385.323 72.4006 385.965 74.943 386.896 76.229Z" fill="#FFFF00"/>
<path d="M509.059 361.332L171.861 371.939L173.873 436.023L511.071 425.416L509.059 361.332Z" fill="#FFFF00"/>
<path d="M199.754 430.058L190.797 430.339C189.202 430.391 188.382 429.614 188.331 428.025L186.817 379.911C186.765 378.315 187.541 377.494 189.128 377.443L201.969 377.036C208.887 376.814 213.746 378.034 216.544 380.687C219.343 383.34 220.864 388.455 221.1 396.023C221.336 403.495 220.125 408.647 217.475 411.47C214.824 414.293 210.061 415.816 203.194 416.03L201.703 416.074L202.065 427.582C202.116 429.178 201.341 429.999 199.754 430.051V430.058ZM201.319 403.828L202.81 403.784C204.797 403.724 206.045 403.229 206.539 402.32C207.034 401.404 207.233 399.452 207.137 396.467C207.041 393.481 206.724 391.544 206.17 390.665C205.616 389.785 204.346 389.379 202.36 389.438L200.868 389.482L201.319 403.828Z" fill="black"/>
<path d="M230.647 376.504C232.663 375.691 235.24 375.24 238.378 375.137C241.516 375.033 244.115 375.329 246.175 376.016C248.235 376.696 250.089 377.997 251.713 379.918C253.345 381.84 254.563 384.575 255.368 388.144C256.18 391.707 256.668 396.252 256.845 401.788C257.022 407.324 256.815 411.884 256.232 415.491C255.649 419.097 254.6 421.913 253.101 423.931C251.595 425.949 249.838 427.36 247.815 428.173C245.799 428.986 243.222 429.437 240.084 429.541C236.946 429.637 234.347 429.348 232.286 428.661C230.219 427.981 228.373 426.68 226.749 424.759C225.117 422.844 223.899 420.102 223.086 416.533C222.274 412.97 221.787 408.425 221.61 402.889C221.432 397.353 221.639 392.793 222.222 389.187C222.806 385.58 223.854 382.764 225.353 380.746C226.859 378.729 228.617 377.317 230.64 376.504H230.647ZM237.352 416.304C237.869 416.983 238.651 417.309 239.7 417.279C240.748 417.25 241.501 416.873 241.981 416.163C242.454 415.454 242.764 414.071 242.897 412.024C243.03 409.977 243.03 406.71 242.89 402.224C242.749 397.738 242.543 394.486 242.284 392.446C242.018 390.413 241.627 389.054 241.11 388.366C240.593 387.686 239.811 387.361 238.762 387.391C237.714 387.42 236.953 387.797 236.48 388.507C236.008 389.223 235.698 390.598 235.565 392.645C235.432 394.693 235.432 397.959 235.572 402.446C235.713 406.932 235.912 410.191 236.178 412.224C236.444 414.264 236.835 415.616 237.352 416.304Z" fill="black"/>
<path d="M271.022 377.25L272.211 415.054L281.765 414.751C283.36 414.7 284.18 415.476 284.231 417.065L284.483 424.988C284.534 426.584 283.759 427.405 282.171 427.456L261.268 428.114C259.673 428.166 258.853 427.39 258.802 425.801L257.288 377.686C257.236 376.09 258.012 375.27 259.599 375.218L268.556 374.937C270.151 374.885 270.97 375.661 271.022 377.25Z" fill="black"/>
<path d="M297.596 376.415L298.785 414.219L308.34 413.916C309.934 413.864 310.754 414.64 310.806 416.23L311.057 424.153C311.108 425.749 310.333 426.569 308.746 426.621L287.842 427.279C286.247 427.331 285.428 426.555 285.376 424.965L283.862 376.851C283.811 375.255 284.586 374.434 286.173 374.383L295.13 374.102C296.725 374.05 297.544 374.826 297.596 376.415Z" fill="black"/>
<path d="M318.433 373.732C320.449 372.919 323.026 372.468 326.164 372.365C329.302 372.269 331.901 372.557 333.961 373.244C336.021 373.924 337.875 375.225 339.499 377.147C341.131 379.068 342.349 381.803 343.161 385.373C343.974 388.935 344.461 393.481 344.638 399.016C344.815 404.545 344.609 409.112 344.025 412.719C343.442 416.326 342.393 419.142 340.895 421.159C339.388 423.177 337.631 424.589 335.608 425.402C333.592 426.215 331.015 426.665 327.877 426.769C324.739 426.872 322.14 426.577 320.08 425.889C318.012 425.209 316.166 423.909 314.542 421.987C312.91 420.073 311.692 417.331 310.88 413.761C310.067 410.199 309.58 405.653 309.403 400.117C309.226 394.589 309.432 390.022 310.016 386.415C310.599 382.808 311.647 379.992 313.146 377.975C314.653 375.957 316.41 374.545 318.433 373.732ZM325.138 413.532C325.654 414.212 326.437 414.537 327.486 414.507C328.534 414.478 329.287 414.101 329.767 413.391C330.24 412.682 330.55 411.3 330.683 409.253C330.816 407.205 330.816 403.939 330.675 399.452C330.535 394.966 330.328 391.714 330.07 389.674C329.804 387.642 329.413 386.282 328.896 385.594C328.379 384.915 327.596 384.589 326.548 384.619C325.499 384.648 324.739 385.025 324.266 385.735C323.794 386.452 323.484 387.827 323.351 389.874C323.218 391.921 323.218 395.188 323.358 399.674C323.498 404.16 323.698 407.42 323.964 409.452C324.229 411.492 324.621 412.845 325.138 413.532Z" fill="black"/>
<path d="M379.8 405.454L368.753 405.801L369.27 422.164C369.322 423.857 368.502 424.729 366.812 424.788L358.15 425.062C356.459 425.113 355.588 424.293 355.529 422.6L354.023 374.782C353.971 373.089 354.791 372.217 356.482 372.158L379.172 371.441C380.767 371.389 381.586 372.165 381.638 373.754L381.882 381.522C381.934 383.119 381.158 383.939 379.571 383.991L368.074 384.353L368.355 393.244L379.401 392.897C380.996 392.845 381.815 393.621 381.867 395.21L382.111 402.978C382.162 404.574 381.387 405.395 379.8 405.446V405.454Z" fill="black"/>
<path d="M384.26 371.286L397.698 370.865C404.617 370.643 409.497 371.855 412.347 374.479C415.198 377.11 416.733 382.054 416.962 389.327C417.221 397.546 414.947 402.926 410.147 405.476L417.339 420.206C418.299 422.172 417.804 423.184 415.862 423.243L406.758 423.532C405.813 423.561 405.111 423.45 404.654 423.184C404.196 422.926 403.782 422.379 403.406 421.544L397.536 408.27L396.79 408.292L397.203 421.44C397.255 423.036 396.48 423.857 394.892 423.909L385.936 424.189C384.341 424.241 383.521 423.465 383.47 421.876L381.956 373.762C381.904 372.165 382.679 371.345 384.267 371.293L384.26 371.286ZM396.413 396.629L398.503 396.563C400.445 396.503 401.7 396.001 402.269 395.062C402.837 394.124 403.081 392.357 403 389.763C402.918 387.169 402.564 385.425 401.936 384.523C401.309 383.621 400.024 383.2 398.089 383.259L396 383.326L396.421 396.622L396.413 396.629Z" fill="black"/>
<path d="M418.69 420.76L417.176 372.646C417.125 371.049 417.9 370.229 419.488 370.177L428.444 369.896C430.039 369.845 430.859 370.621 430.91 372.21L432.424 420.324C432.476 421.921 431.7 422.741 430.113 422.793L421.156 423.073C419.561 423.125 418.742 422.349 418.69 420.76Z" fill="black"/>
<path d="M431.604 379.963L431.361 372.195C431.309 370.599 432.084 369.778 433.672 369.727L457.854 368.965C459.448 368.914 460.268 369.69 460.32 371.279L460.563 379.046C460.615 380.643 459.84 381.463 458.252 381.515L453.025 381.678L454.221 419.637C454.272 421.233 453.497 422.054 451.91 422.105L442.953 422.386C441.358 422.438 440.539 421.662 440.487 420.073L439.291 382.114L434.063 382.276C432.468 382.328 431.649 381.552 431.597 379.963H431.604Z" fill="black"/>
<path d="M468.317 369.01C470.332 368.197 472.909 367.746 476.047 367.642C479.185 367.546 481.785 367.834 483.845 368.522C485.905 369.202 487.758 370.503 489.383 372.424C491.014 374.346 492.233 377.08 493.045 380.65C493.857 384.213 494.344 388.758 494.522 394.294C494.699 399.829 494.492 404.39 493.909 407.996C493.325 411.603 492.277 414.419 490.778 416.437C489.272 418.454 487.514 419.866 485.491 420.679C483.475 421.492 480.899 421.943 477.76 422.046C474.622 422.142 472.023 421.854 469.963 421.167C467.896 420.487 466.05 419.186 464.425 417.264C462.793 415.35 461.575 412.608 460.77 409.038C459.958 405.476 459.471 400.931 459.294 395.395C459.116 389.866 459.323 385.299 459.906 381.692C460.49 378.086 461.538 375.27 463.037 373.252C464.543 371.234 466.301 369.823 468.324 369.01H468.317ZM475.021 408.809C475.538 409.489 476.321 409.814 477.369 409.785C478.418 409.755 479.171 409.378 479.651 408.669C480.123 407.959 480.433 406.577 480.566 404.53C480.699 402.483 480.699 399.216 480.559 394.73C480.419 390.243 480.212 386.991 479.953 384.952C479.688 382.919 479.296 381.559 478.779 380.872C478.263 380.192 477.48 379.867 476.431 379.896C475.383 379.926 474.622 380.303 474.15 381.012C473.677 381.729 473.367 383.104 473.234 385.151C473.101 387.198 473.101 390.465 473.242 394.951C473.382 399.438 473.581 402.697 473.847 404.729C474.113 406.769 474.504 408.122 475.021 408.809Z" fill="black"/>
</g>
<defs>
<clipPath id="clip0_6_294">
<rect width="683" height="436" fill="white"/>
</clipPath>
</defs>
</svg>
