<svg width="34" height="34" viewBox="0 0 34 34" fill="none" xmlns="http://www.w3.org/2000/svg">
<path d="M6.90698 29.6289C6.90698 30.4077 7.2304 31.1545 7.80609 31.7052C8.38178 32.2559 9.16259 32.5652 9.97674 32.5652C10.7909 32.5652 11.5717 32.2559 12.1474 31.7052C12.7231 31.1545 13.0465 30.4077 13.0465 29.6289M17.6512 29.6289C17.6512 30.4077 17.9746 31.1545 18.5503 31.7052C19.126 32.2559 19.9068 32.5652 20.7209 32.5652C21.5351 32.5652 22.3159 32.2559 22.8916 31.7052C23.4673 31.1545 23.7907 30.4077 23.7907 29.6289M9.2093 9.8089H33V10.1759L32.6332 10.5914C28.9045 14.827 26.86 20.1864 26.8605 25.7236V25.9585H6.90698V23.1984C6.90698 20.1447 6.80567 17.0939 6.31451 14.0783C5.46419 8.85754 3.58702 1 0 1" stroke="white" stroke-width="1.43478"/>
</svg>
