<svg width="44" height="42" viewBox="0 0 44 42" fill="none" xmlns="http://www.w3.org/2000/svg">
<path d="M9.62269 37.1116C9.62269 38.0876 10.028 39.0237 10.7496 39.7139C11.4711 40.4041 12.4498 40.7918 13.4702 40.7918C14.4906 40.7918 15.4692 40.4041 16.1908 39.7139C16.9123 39.0237 17.3177 38.0876 17.3177 37.1116M23.0889 37.1116C23.0889 38.0876 23.4943 39.0237 24.2158 39.7139C24.9374 40.4041 25.916 40.7918 26.9364 40.7918C27.9568 40.7918 28.9355 40.4041 29.657 39.7139C30.3786 39.0237 30.7839 38.0876 30.7839 37.1116M12.5083 12.2701H42.3264V12.7302L41.8666 13.2509C37.1933 18.5596 34.6308 25.2768 34.6314 32.2169V32.5113H9.62269V29.0519C9.62269 25.2245 9.49572 21.4007 8.88012 17.6212C7.81437 11.0777 5.46162 1.22949 0.96582 1.22949" stroke="black" stroke-width="2.4047"/>
</svg>
