<svg width="435" height="325" viewBox="0 0 435 325" fill="none" xmlns="http://www.w3.org/2000/svg">
<g clip-path="url(#clip0_112_2)">
<path d="M53.157 90.9931H28.623V108.436H55.3557C58.7092 108.436 60.3859 110.112 60.3859 113.463V129.807C60.3859 133.158 58.7092 134.834 55.3557 134.834H5.03018C1.67673 134.834 0 133.158 0 129.807V28.6028C0 25.2517 1.67673 23.5762 5.03018 23.5762H54.7309C58.0844 23.5762 59.7611 25.2517 59.7611 28.6028V44.9472C59.7611 48.2983 58.0844 49.9739 54.7309 49.9739H28.623V65.528H53.157C56.5105 65.528 58.1872 67.2035 58.1872 70.5546V85.9585C58.1872 89.3096 56.5105 90.9852 53.157 90.9852V90.9931Z" fill="black"/>
<path d="M91.2155 28.6028V108.128H111.344C114.698 108.128 116.374 109.803 116.374 113.154V129.815C116.374 133.166 114.698 134.842 111.344 134.842H67.3063C63.9449 134.842 62.2761 133.166 62.2761 129.815V28.6028C62.2761 25.2517 63.9529 23.5762 67.3063 23.5762H86.1774C89.5309 23.5762 91.2076 25.2517 91.2076 28.6028H91.2155Z" fill="black"/>
<path d="M171.422 90.9931H146.888V108.436H173.62C176.974 108.436 178.651 110.112 178.651 113.463V129.807C178.651 133.158 176.974 134.834 173.62 134.834H123.295C119.941 134.834 118.265 133.158 118.265 129.807V28.6028C118.265 25.2517 119.941 23.5762 123.295 23.5762H172.996C176.349 23.5762 178.026 25.2517 178.026 28.6028V44.9472C178.026 48.2983 176.349 49.9739 172.996 49.9739H146.888V65.528H171.422C174.775 65.528 176.452 67.2035 176.452 70.5546V85.9585C176.452 89.3096 174.775 90.9852 171.422 90.9852V90.9931Z" fill="black"/>
<path d="M220.015 64.1211H245.648C249.002 64.1211 250.679 65.7966 250.679 69.1477V123.524C250.679 127.088 249.002 129.815 245.648 131.696C243.236 133.055 239.408 134.186 234.164 135.079C228.921 135.964 223.677 136.414 218.433 136.414C211.204 136.414 205.225 135.632 200.503 134.059C195.782 132.486 191.645 129.633 188.078 125.492C184.511 121.358 181.949 115.462 180.375 107.812C178.801 100.169 178.018 90.4714 178.018 78.7347C178.018 66.998 178.801 57.6244 180.375 50.29C181.949 42.9555 184.646 37.1939 188.474 33.005C192.302 28.8161 196.857 25.9314 202.156 24.3665C207.448 22.7937 214.344 22.0112 222.839 22.0112C230.487 22.0112 237.043 22.7937 242.501 24.3665C245.751 25.307 247.381 27.354 247.381 30.4917V45.5795C247.381 49.144 245.126 50.4559 240.618 49.5075C235.272 48.567 230.605 48.0928 226.619 48.0928C218.441 48.0928 213.197 49.9501 210.896 53.6727C208.586 57.3952 207.44 65.7492 207.44 78.7426C207.44 87.966 207.938 94.929 208.934 99.6474C209.931 104.366 211.394 107.535 213.34 109.155C215.278 110.783 218.141 111.59 221.913 111.59C223.274 111.59 224.373 111.431 225.211 111.115V87.3811H220.023C216.67 87.3811 214.993 85.7056 214.993 82.3545V69.1556C214.993 65.8045 216.67 64.129 220.023 64.129L220.015 64.1211Z" fill="black"/>
<path d="M254.143 129.815V28.6028C254.143 25.2517 255.82 23.5762 259.173 23.5762H278.044C281.398 23.5762 283.074 25.2517 283.074 28.6028V129.815C283.074 133.166 281.398 134.842 278.044 134.842H259.173C255.812 134.842 254.143 133.166 254.143 129.815ZM259.173 14.4634L263.104 3.1456C263.729 1.05117 265.303 0 267.818 0H288.104C289.465 0 290.359 0.553245 290.778 1.65183C291.197 2.75042 290.936 3.76997 289.987 4.71839L280.077 15.4039C278.289 17.2929 276.091 18.2334 273.473 18.2334H261.68C259.054 18.2334 258.216 16.9767 259.165 14.4634H259.173Z" fill="black"/>
<path d="M302.895 44.9472V28.6028C302.895 25.2517 304.571 23.5762 307.925 23.5762H358.883C362.236 23.5762 363.913 25.2517 363.913 28.6028V44.9472C363.913 48.2983 362.236 49.9739 358.883 49.9739H347.874V129.807C347.874 133.158 346.197 134.834 342.843 134.834H323.972C320.619 134.834 318.942 133.158 318.942 129.807V49.9739H307.933C304.579 49.9739 302.902 48.2983 302.902 44.9472H302.895Z" fill="black"/>
<path d="M426.506 128.709C420.843 133.846 411.826 136.407 399.457 136.407C387.087 136.407 378.07 133.838 372.407 128.709C366.745 123.579 363.913 115.091 363.913 103.251V28.6028C363.913 25.2517 365.59 23.5762 368.943 23.5762H387.814C391.168 23.5762 392.845 25.2517 392.845 28.6028V99.1653C392.845 103.251 393.319 106.081 394.26 107.654C395.201 109.226 396.934 110.009 399.449 110.009C401.964 110.009 403.696 109.226 404.637 107.654C405.578 106.081 406.053 103.251 406.053 99.1653V28.6028C406.053 25.2517 407.729 23.5762 411.083 23.5762H429.954C433.307 23.5762 434.984 25.2517 434.984 28.6028V103.251C434.984 115.091 432.153 123.579 426.49 128.709H426.506Z" fill="black"/>
<path d="M51.6702 323.056H8.58939C4.42921 323.056 2.34912 320.977 2.34912 316.82V191.383C2.34912 187.226 4.4213 185.147 8.58939 185.147H47.3756C62.1893 185.147 73.0722 187.487 80.0243 192.158C86.9764 196.829 90.4564 205.863 90.4564 219.235C90.4564 233.912 85.1889 243.649 74.6698 248.455C80.5147 250.533 85.1968 254.493 88.7006 260.334C92.2043 266.174 93.968 273.256 93.968 281.562C93.968 309.217 79.8661 323.048 51.6702 323.048V323.056ZM37.4418 237.548H46.0152C49.3924 237.548 51.7335 236.742 53.0306 235.113C54.3277 233.493 54.9762 230.727 54.9762 226.838C54.9762 222.95 54.3277 220.215 53.0306 218.658C51.7256 217.101 49.3924 216.319 46.0152 216.319H37.4418V237.548ZM37.4418 291.892H48.554C52.3188 291.892 54.9208 290.952 56.3524 289.071C57.776 287.19 58.4958 283.973 58.4958 279.428C58.4958 274.884 57.776 271.477 56.3524 269.589C54.9208 267.707 52.3188 266.767 48.554 266.767H37.4418V291.892Z" fill="black"/>
<path d="M120.875 185.156H157.913C162.983 185.156 165.972 187.44 166.882 192L187.746 316.298C188.134 318.361 187.841 319.997 186.868 321.222C185.895 322.447 184.377 323.056 182.305 323.056H158.419C154.662 323.056 152.464 321.048 151.823 317.018L149.292 300.072H129.488L126.965 317.018C126.316 321.048 124.117 323.056 120.369 323.056H96.483C94.4109 323.056 92.8923 322.439 91.9195 321.206C90.9467 319.973 90.662 318.322 91.0495 316.243L111.914 191.945C112.823 187.424 115.813 185.163 120.883 185.163L120.875 185.156ZM131.884 268.893L147.101 268.925L139.967 219.828L139.018 219.797L131.884 268.893Z" fill="black"/>
<path d="M206.625 279.231V191.383C206.625 187.226 208.705 185.147 212.865 185.147H236.253C240.413 185.147 242.493 187.226 242.493 191.383V286.044C242.493 300.586 239.796 310.521 234.402 315.848C229.008 321.175 220.142 323.83 207.796 323.83C202.338 323.83 197.332 323.309 192.792 322.273C188.244 321.238 185.967 318.574 185.967 314.291V294.816C185.967 291.442 187.786 289.75 191.424 289.75C192.207 289.75 193.472 289.845 195.228 290.043C196.984 290.24 198.376 290.335 199.42 290.335C201.888 290.335 203.715 289.592 204.877 288.099C206.048 286.605 206.633 283.649 206.633 279.239L206.625 279.231Z" fill="black"/>
<path d="M271.329 186.127C276.66 184.175 283.414 183.203 291.6 183.203C299.786 183.203 306.54 184.175 311.871 186.127C317.194 188.072 321.908 191.612 326.005 196.742C330.094 201.871 333.052 209.111 334.871 218.461C336.69 227.811 337.599 239.689 337.599 254.105C337.599 268.521 336.69 280.4 334.871 289.75C333.052 299.1 330.094 306.34 326.005 311.469C321.908 316.598 317.202 320.139 311.871 322.083C306.54 324.036 299.786 325.008 291.6 325.008C283.414 325.008 276.652 324.036 271.329 322.083C265.998 320.139 261.293 316.598 257.196 311.469C253.099 306.34 250.141 299.1 248.322 289.75C246.503 280.4 245.593 268.521 245.593 254.105C245.593 239.689 246.503 227.811 248.322 218.461C250.141 209.111 253.099 201.871 257.196 196.742C261.285 191.612 265.998 188.072 271.329 186.127ZM279.128 173.853L284 159.832C284.783 157.232 286.728 155.936 289.844 155.936H314.987C316.672 155.936 317.779 156.616 318.301 157.983C318.815 159.342 318.491 160.615 317.328 161.777L305.046 175.023C302.839 177.362 300.102 178.532 296.86 178.532H282.244C278.993 178.532 277.957 176.975 279.128 173.861V173.853ZM285.558 290.327C286.855 292.145 288.872 293.054 291.6 293.054C294.329 293.054 296.338 292.145 297.643 290.327C298.94 288.509 299.849 284.937 300.371 279.618C300.885 274.299 301.154 265.787 301.154 254.105C301.154 242.424 300.893 233.912 300.371 228.593C299.849 223.266 298.94 219.701 297.643 217.884C296.338 216.066 294.329 215.157 291.6 215.157C288.872 215.157 286.855 216.066 285.558 217.884C284.261 219.701 283.351 223.274 282.829 228.593C282.307 233.92 282.054 242.424 282.054 254.105C282.054 265.787 282.315 274.299 282.829 279.618C283.351 284.945 284.261 288.509 285.558 290.327Z" fill="black"/>
<path d="M432.335 191.383V316.82C432.335 320.977 430.255 323.056 426.094 323.056H406.021C401.861 323.056 399.069 321.301 397.637 317.792L375.421 262.673V316.82C375.421 320.977 373.341 323.056 369.181 323.056H346.964C342.804 323.056 340.724 320.977 340.724 316.82V191.383C340.724 187.226 342.796 185.148 346.964 185.148H367.045C371.197 185.148 373.989 186.902 375.421 190.403L397.637 245.522V191.376C397.637 187.218 399.718 185.14 403.878 185.14H426.094C430.255 185.14 432.335 187.218 432.335 191.376V191.383Z" fill="black"/>
</g>
<defs>
<clipPath id="clip0_112_2">
<rect width="435" height="325" fill="white"/>
</clipPath>
</defs>
</svg>
